<mxfile host="65bd71144e">
    <diagram id="W9SPjL8Vydv1FY_jjG3A" name="Page-1">
        <mxGraphModel dx="1144" dy="208" grid="1" gridSize="10" guides="1" tooltips="1" connect="1" arrows="1" fold="1" page="1" pageScale="1" pageWidth="850" pageHeight="1100" math="0" shadow="0">
            <root>
                <mxCell id="0"/>
                <mxCell id="1" parent="0"/>
                <mxCell id="1oDAUT04zzke2lDfdvhH-9" style="edgeStyle=orthogonalEdgeStyle;rounded=1;orthogonalLoop=1;jettySize=auto;html=1;" parent="1" source="1oDAUT04zzke2lDfdvhH-2" target="1oDAUT04zzke2lDfdvhH-8" edge="1">
                    <mxGeometry relative="1" as="geometry"/>
                </mxCell>
                <mxCell id="1oDAUT04zzke2lDfdvhH-2" value="START&lt;br&gt;MergeSort()" style="strokeWidth=2;html=1;shape=stencil(xVVNb4MwDP01HJmAaIgeJ9Yde9mknV3qlqghQU7Wj3+/0BS1QGE0l0kc8DO85+fYSsByXUKNQRJJqDBg70GSfCFVXIJRZAObKR2cRi48unCRuRB0jYVx2AGIw1qgy2hDao9HvjFXBi5LJG6aLFsG0Zv9pnlYXigpLQlXUncyd3lLBlzaf6OTI4teXp3M+Rq7qLYKFRqkDnozt3JAkHx4K8XzlD49lLqOWt2/lL6fV4r9lJY+3Yv7YvHMDq48jD2QyxYzD8xLrmV/3p1XMwdys92NyLHcImMLyPI1FPsdqR+5eVhkDc1yDxJtulIHvFXPevM95b9lEFzeMaTZ8wxAhX2hXg107sanEE5ch6QMNG3o8AugHYaWJ9wK2HVS+ohY38HXs39cburhuNezeRT/aNnnjAuhNE5sgsUHc3ZBR4aT5VtFODG1Wy6Eu53GFmJAcEHdXXkBfgE=);whiteSpace=wrap;rounded=1;" parent="1" vertex="1">
                    <mxGeometry x="40" y="20" width="100" height="60" as="geometry"/>
                </mxCell>
                <mxCell id="1oDAUT04zzke2lDfdvhH-49" style="edgeStyle=orthogonalEdgeStyle;rounded=1;orthogonalLoop=1;jettySize=auto;html=1;fontSize=10;" parent="1" source="1oDAUT04zzke2lDfdvhH-6" target="1oDAUT04zzke2lDfdvhH-47" edge="1">
                    <mxGeometry relative="1" as="geometry"/>
                </mxCell>
                <mxCell id="1oDAUT04zzke2lDfdvhH-6" value="START&lt;br&gt;Merge()" style="strokeWidth=2;html=1;shape=mxgraph.flowchart.start_1;whiteSpace=wrap;rounded=1;" parent="1" vertex="1">
                    <mxGeometry x="-470" y="20" width="100" height="60" as="geometry"/>
                </mxCell>
                <mxCell id="1oDAUT04zzke2lDfdvhH-39" style="edgeStyle=orthogonalEdgeStyle;rounded=1;orthogonalLoop=1;jettySize=auto;html=1;entryX=0.5;entryY=0;entryDx=0;entryDy=0;fontSize=10;" parent="1" source="1oDAUT04zzke2lDfdvhH-7" target="1oDAUT04zzke2lDfdvhH-22" edge="1">
                    <mxGeometry relative="1" as="geometry"/>
                </mxCell>
                <mxCell id="1oDAUT04zzke2lDfdvhH-7" value="START&lt;br&gt;InsertionSort()" style="strokeWidth=2;html=1;shape=stencil(xVVNb4MwDP01HJmAaIgeJ9Yde9mknV3qlqghQU7Wj3+/0BS1QGE0l0kc8DO85+fYSsByXUKNQRJJqDBg70GSfCFVXIJRZAObKR2cRi48unCRuRB0jYVx2AGIw1qgy2hDao9HvjFXBi5LJG6aLFsG0Zv9pnlYXigpLQlXUncyd3lLBlzaf6OTI4teXp3M+Rq7qLYKFRqkDnozt3JAkHx4K8XzlD49lLqOWt2/lL6fV4r9lJY+3Yv7YvHMDq48jD2QyxYzD8xLrmV/3p1XMwdys92NyLHcImMLyPI1FPsdqR+5eVhkDc1yDxJtulIHvFXPevM95b9lEFzeMaTZ8wxAhX2hXg107sanEE5ch6QMNG3o8AugHYaWJ9wK2HVS+ohY38HXs39cburhuNezeRT/aNnnjAuhNE5sgsUHc3ZBR4aT5VtFODG1Wy6Eu53GFmJAcEHdXXkBfgE=);whiteSpace=wrap;rounded=1;" parent="1" vertex="1">
                    <mxGeometry x="470" y="20" width="100" height="60" as="geometry"/>
                </mxCell>
                <mxCell id="1oDAUT04zzke2lDfdvhH-12" style="edgeStyle=orthogonalEdgeStyle;rounded=1;orthogonalLoop=1;jettySize=auto;html=1;fontSize=10;" parent="1" source="1oDAUT04zzke2lDfdvhH-8" target="1oDAUT04zzke2lDfdvhH-11" edge="1">
                    <mxGeometry relative="1" as="geometry"/>
                </mxCell>
                <mxCell id="1oDAUT04zzke2lDfdvhH-8" value="&lt;font style=&quot;font-size: 10px&quot;&gt;READ&lt;br&gt;Employee E[]&lt;br&gt;start&lt;br&gt;end&lt;br&gt;&lt;/font&gt;" style="shape=parallelogram;html=1;strokeWidth=2;perimeter=parallelogramPerimeter;whiteSpace=wrap;rounded=1;arcSize=12;size=0.23;" parent="1" vertex="1">
                    <mxGeometry x="40" y="120" width="100" height="60" as="geometry"/>
                </mxCell>
                <mxCell id="1oDAUT04zzke2lDfdvhH-14" value="Yes" style="edgeStyle=orthogonalEdgeStyle;rounded=1;orthogonalLoop=1;jettySize=auto;html=1;fontSize=10;" parent="1" source="1oDAUT04zzke2lDfdvhH-11" target="1oDAUT04zzke2lDfdvhH-13" edge="1">
                    <mxGeometry relative="1" as="geometry"/>
                </mxCell>
                <mxCell id="1oDAUT04zzke2lDfdvhH-24" style="edgeStyle=orthogonalEdgeStyle;rounded=1;orthogonalLoop=1;jettySize=auto;html=1;fontSize=10;" parent="1" source="1oDAUT04zzke2lDfdvhH-11" target="1oDAUT04zzke2lDfdvhH-23" edge="1">
                    <mxGeometry relative="1" as="geometry"/>
                </mxCell>
                <mxCell id="1oDAUT04zzke2lDfdvhH-11" value="start + 5 &amp;lt; end" style="strokeWidth=2;html=1;shape=mxgraph.flowchart.decision;whiteSpace=wrap;fontSize=10;rounded=1;" parent="1" vertex="1">
                    <mxGeometry x="40" y="220" width="100" height="100" as="geometry"/>
                </mxCell>
                <mxCell id="1oDAUT04zzke2lDfdvhH-20" value="Recursion" style="edgeStyle=orthogonalEdgeStyle;rounded=1;orthogonalLoop=1;jettySize=auto;html=1;entryX=0;entryY=0.5;entryDx=0;entryDy=0;entryPerimeter=0;fontSize=10;" parent="1" source="1oDAUT04zzke2lDfdvhH-13" target="1oDAUT04zzke2lDfdvhH-2" edge="1">
                    <mxGeometry relative="1" as="geometry">
                        <Array as="points">
                            <mxPoint x="-40" y="380"/>
                            <mxPoint x="-40" y="50"/>
                        </Array>
                    </mxGeometry>
                </mxCell>
                <mxCell id="1oDAUT04zzke2lDfdvhH-46" value="Function call" style="edgeStyle=orthogonalEdgeStyle;rounded=1;orthogonalLoop=1;jettySize=auto;html=1;entryX=1;entryY=0.5;entryDx=0;entryDy=0;entryPerimeter=0;fontSize=10;" parent="1" source="1oDAUT04zzke2lDfdvhH-13" target="1oDAUT04zzke2lDfdvhH-6" edge="1">
                    <mxGeometry relative="1" as="geometry">
                        <Array as="points">
                            <mxPoint x="-85" y="420"/>
                            <mxPoint x="-85" y="50"/>
                        </Array>
                    </mxGeometry>
                </mxCell>
                <mxCell id="1oDAUT04zzke2lDfdvhH-13" value="mid = (end+start)/2&lt;br&gt;MergeSort(E[], start, mid)&lt;br&gt;MergeSort(E[], mid+1, end)&lt;br&gt;Merge(E[], start, mid, end)" style="rounded=1;whiteSpace=wrap;html=1;absoluteArcSize=1;arcSize=14;strokeWidth=2;fontSize=10;" parent="1" vertex="1">
                    <mxGeometry x="20" y="360" width="140" height="80" as="geometry"/>
                </mxCell>
                <mxCell id="1oDAUT04zzke2lDfdvhH-16" value="Any reference or changes&lt;br&gt;to E[] is global" style="text;html=1;align=center;verticalAlign=middle;resizable=0;points=[];autosize=1;strokeColor=none;fillColor=none;fontSize=10;rounded=1;" parent="1" vertex="1">
                    <mxGeometry x="140" y="150" width="130" height="30" as="geometry"/>
                </mxCell>
                <mxCell id="1oDAUT04zzke2lDfdvhH-18" value="Employee is a struct template of members:&lt;br&gt;employeeID, firstName,surname,line" style="text;html=1;align=center;verticalAlign=middle;resizable=0;points=[];autosize=1;strokeColor=none;fillColor=none;fontSize=10;rounded=1;" parent="1" vertex="1">
                    <mxGeometry x="140" y="120" width="210" height="30" as="geometry"/>
                </mxCell>
                <mxCell id="1oDAUT04zzke2lDfdvhH-40" style="edgeStyle=orthogonalEdgeStyle;rounded=1;orthogonalLoop=1;jettySize=auto;html=1;fontSize=10;" parent="1" source="1oDAUT04zzke2lDfdvhH-22" target="1oDAUT04zzke2lDfdvhH-28" edge="1">
                    <mxGeometry relative="1" as="geometry"/>
                </mxCell>
                <mxCell id="1oDAUT04zzke2lDfdvhH-22" value="READ&lt;br&gt;E[]&lt;br&gt;start&lt;br&gt;end" style="shape=parallelogram;html=1;strokeWidth=2;perimeter=parallelogramPerimeter;whiteSpace=wrap;rounded=1;arcSize=12;size=0.23;fontSize=10;" parent="1" vertex="1">
                    <mxGeometry x="470" y="120" width="100" height="60" as="geometry"/>
                </mxCell>
                <mxCell id="1oDAUT04zzke2lDfdvhH-25" value="Function call" style="edgeStyle=orthogonalEdgeStyle;rounded=1;orthogonalLoop=1;jettySize=auto;html=1;entryX=0;entryY=0.5;entryDx=0;entryDy=0;entryPerimeter=0;fontSize=10;" parent="1" source="1oDAUT04zzke2lDfdvhH-23" target="1oDAUT04zzke2lDfdvhH-7" edge="1">
                    <mxGeometry relative="1" as="geometry"/>
                </mxCell>
                <mxCell id="1oDAUT04zzke2lDfdvhH-23" value="InsertionSort(E[],start,end)" style="rounded=1;whiteSpace=wrap;html=1;absoluteArcSize=1;arcSize=14;strokeWidth=2;fontSize=10;" parent="1" vertex="1">
                    <mxGeometry x="175" y="240" width="140" height="60" as="geometry"/>
                </mxCell>
                <mxCell id="1oDAUT04zzke2lDfdvhH-42" value="Yes" style="edgeStyle=orthogonalEdgeStyle;rounded=1;orthogonalLoop=1;jettySize=auto;html=1;fontSize=10;" parent="1" source="1oDAUT04zzke2lDfdvhH-26" target="1oDAUT04zzke2lDfdvhH-29" edge="1">
                    <mxGeometry relative="1" as="geometry"/>
                </mxCell>
                <mxCell id="1oDAUT04zzke2lDfdvhH-45" style="edgeStyle=orthogonalEdgeStyle;rounded=1;orthogonalLoop=1;jettySize=auto;html=1;fontSize=10;" parent="1" source="1oDAUT04zzke2lDfdvhH-26" target="1oDAUT04zzke2lDfdvhH-44" edge="1">
                    <mxGeometry relative="1" as="geometry"/>
                </mxCell>
                <mxCell id="1oDAUT04zzke2lDfdvhH-26" value="i &amp;lt;= end" style="strokeWidth=2;html=1;shape=mxgraph.flowchart.decision;whiteSpace=wrap;fontSize=10;rounded=1;" parent="1" vertex="1">
                    <mxGeometry x="470" y="320" width="100" height="100" as="geometry"/>
                </mxCell>
                <mxCell id="1oDAUT04zzke2lDfdvhH-33" value="No" style="edgeStyle=orthogonalEdgeStyle;rounded=1;orthogonalLoop=1;jettySize=auto;html=1;fontSize=10;" parent="1" source="1oDAUT04zzke2lDfdvhH-27" target="1oDAUT04zzke2lDfdvhH-31" edge="1">
                    <mxGeometry relative="1" as="geometry"/>
                </mxCell>
                <mxCell id="1oDAUT04zzke2lDfdvhH-34" value="Yes" style="edgeStyle=orthogonalEdgeStyle;rounded=1;orthogonalLoop=1;jettySize=auto;html=1;fontSize=10;" parent="1" source="1oDAUT04zzke2lDfdvhH-27" target="1oDAUT04zzke2lDfdvhH-30" edge="1">
                    <mxGeometry relative="1" as="geometry"/>
                </mxCell>
                <mxCell id="1oDAUT04zzke2lDfdvhH-27" value="j &amp;gt;= start&lt;br&gt;AND&lt;br&gt;strncmp(E[j].surname, key.surname) &amp;gt; 0" style="strokeWidth=2;html=1;shape=mxgraph.flowchart.decision;whiteSpace=wrap;fontSize=10;rounded=1;" parent="1" vertex="1">
                    <mxGeometry x="390" y="550" width="260" height="120" as="geometry"/>
                </mxCell>
                <mxCell id="1oDAUT04zzke2lDfdvhH-41" style="edgeStyle=orthogonalEdgeStyle;rounded=1;orthogonalLoop=1;jettySize=auto;html=1;fontSize=10;" parent="1" source="1oDAUT04zzke2lDfdvhH-28" target="1oDAUT04zzke2lDfdvhH-26" edge="1">
                    <mxGeometry relative="1" as="geometry"/>
                </mxCell>
                <mxCell id="1oDAUT04zzke2lDfdvhH-28" value="i = start + 1" style="rounded=1;whiteSpace=wrap;html=1;absoluteArcSize=1;arcSize=14;strokeWidth=2;fontSize=10;" parent="1" vertex="1">
                    <mxGeometry x="470" y="220" width="100" height="60" as="geometry"/>
                </mxCell>
                <mxCell id="1oDAUT04zzke2lDfdvhH-32" style="edgeStyle=orthogonalEdgeStyle;rounded=1;orthogonalLoop=1;jettySize=auto;html=1;fontSize=10;" parent="1" source="1oDAUT04zzke2lDfdvhH-29" target="1oDAUT04zzke2lDfdvhH-27" edge="1">
                    <mxGeometry relative="1" as="geometry"/>
                </mxCell>
                <mxCell id="1oDAUT04zzke2lDfdvhH-29" value="key = E[i]&lt;br&gt;j = i -1" style="rounded=1;whiteSpace=wrap;html=1;absoluteArcSize=1;arcSize=14;strokeWidth=2;fontSize=10;" parent="1" vertex="1">
                    <mxGeometry x="470" y="460" width="100" height="50" as="geometry"/>
                </mxCell>
                <mxCell id="1oDAUT04zzke2lDfdvhH-38" style="edgeStyle=orthogonalEdgeStyle;rounded=1;orthogonalLoop=1;jettySize=auto;html=1;entryX=1;entryY=0.5;entryDx=0;entryDy=0;entryPerimeter=0;fontSize=10;" parent="1" source="1oDAUT04zzke2lDfdvhH-30" target="1oDAUT04zzke2lDfdvhH-27" edge="1">
                    <mxGeometry relative="1" as="geometry">
                        <Array as="points">
                            <mxPoint x="670" y="760"/>
                            <mxPoint x="670" y="610"/>
                        </Array>
                    </mxGeometry>
                </mxCell>
                <mxCell id="1oDAUT04zzke2lDfdvhH-30" value="E[j +1] = E[j]&lt;br&gt;j = j - 1" style="rounded=1;whiteSpace=wrap;html=1;absoluteArcSize=1;arcSize=14;strokeWidth=2;fontSize=10;" parent="1" vertex="1">
                    <mxGeometry x="470" y="710" width="100" height="100" as="geometry"/>
                </mxCell>
                <mxCell id="1oDAUT04zzke2lDfdvhH-43" style="edgeStyle=orthogonalEdgeStyle;rounded=1;orthogonalLoop=1;jettySize=auto;html=1;entryX=0;entryY=0.5;entryDx=0;entryDy=0;entryPerimeter=0;fontSize=10;" parent="1" source="1oDAUT04zzke2lDfdvhH-31" target="1oDAUT04zzke2lDfdvhH-26" edge="1">
                    <mxGeometry relative="1" as="geometry">
                        <Array as="points">
                            <mxPoint x="300" y="370"/>
                        </Array>
                    </mxGeometry>
                </mxCell>
                <mxCell id="1oDAUT04zzke2lDfdvhH-31" value="E[j + 1] = key" style="rounded=1;whiteSpace=wrap;html=1;absoluteArcSize=1;arcSize=14;strokeWidth=2;fontSize=10;" parent="1" vertex="1">
                    <mxGeometry x="250" y="560" width="100" height="100" as="geometry"/>
                </mxCell>
                <mxCell id="1oDAUT04zzke2lDfdvhH-44" value="END" style="strokeWidth=2;html=1;shape=mxgraph.flowchart.terminator;whiteSpace=wrap;fontSize=10;rounded=1;" parent="1" vertex="1">
                    <mxGeometry x="610" y="340" width="100" height="60" as="geometry"/>
                </mxCell>
                <mxCell id="1oDAUT04zzke2lDfdvhH-50" style="edgeStyle=orthogonalEdgeStyle;rounded=1;orthogonalLoop=1;jettySize=auto;html=1;fontSize=10;" parent="1" source="1oDAUT04zzke2lDfdvhH-47" target="1oDAUT04zzke2lDfdvhH-48" edge="1">
                    <mxGeometry relative="1" as="geometry"/>
                </mxCell>
                <mxCell id="1oDAUT04zzke2lDfdvhH-47" value="READ&lt;br&gt;E[]&lt;br&gt;start&lt;br&gt;mid&lt;br&gt;end" style="shape=parallelogram;html=1;strokeWidth=2;perimeter=parallelogramPerimeter;whiteSpace=wrap;rounded=1;arcSize=12;size=0.23;fontSize=10;" parent="1" vertex="1">
                    <mxGeometry x="-470" y="120" width="100" height="60" as="geometry"/>
                </mxCell>
                <mxCell id="1oDAUT04zzke2lDfdvhH-72" style="edgeStyle=orthogonalEdgeStyle;rounded=1;orthogonalLoop=1;jettySize=auto;html=1;fontSize=10;" parent="1" source="1oDAUT04zzke2lDfdvhH-48" target="1oDAUT04zzke2lDfdvhH-51" edge="1">
                    <mxGeometry relative="1" as="geometry"/>
                </mxCell>
                <mxCell id="1oDAUT04zzke2lDfdvhH-48" value="nL = mid - start + 1&lt;br&gt;nR = end - mid&lt;br&gt;EL[nL]&lt;br&gt;ER[nR]&lt;br&gt;indexL = 0&lt;br&gt;indexR = 0" style="rounded=1;whiteSpace=wrap;html=1;absoluteArcSize=1;arcSize=14;strokeWidth=2;fontSize=10;" parent="1" vertex="1">
                    <mxGeometry x="-470" y="220" width="100" height="100" as="geometry"/>
                </mxCell>
                <mxCell id="1oDAUT04zzke2lDfdvhH-58" value="Yes" style="edgeStyle=orthogonalEdgeStyle;rounded=1;orthogonalLoop=1;jettySize=auto;html=1;entryX=0;entryY=0.5;entryDx=0;entryDy=0;fontSize=10;exitX=0.5;exitY=1;exitDx=0;exitDy=0;exitPerimeter=0;" parent="1" source="1oDAUT04zzke2lDfdvhH-51" target="1oDAUT04zzke2lDfdvhH-54" edge="1">
                    <mxGeometry relative="1" as="geometry"/>
                </mxCell>
                <mxCell id="1oDAUT04zzke2lDfdvhH-110" value="No" style="edgeStyle=orthogonalEdgeStyle;rounded=1;orthogonalLoop=1;jettySize=auto;html=1;entryX=0.5;entryY=0;entryDx=0;entryDy=0;entryPerimeter=0;fontSize=10;" parent="1" source="1oDAUT04zzke2lDfdvhH-51" target="1oDAUT04zzke2lDfdvhH-67" edge="1">
                    <mxGeometry relative="1" as="geometry"/>
                </mxCell>
                <mxCell id="1oDAUT04zzke2lDfdvhH-51" value="indexL &amp;lt; nL" style="strokeWidth=2;html=1;shape=mxgraph.flowchart.decision;whiteSpace=wrap;fontSize=10;rounded=1;" parent="1" vertex="1">
                    <mxGeometry x="-290" y="370" width="100" height="100" as="geometry"/>
                </mxCell>
                <mxCell id="1oDAUT04zzke2lDfdvhH-65" style="edgeStyle=orthogonalEdgeStyle;rounded=1;orthogonalLoop=1;jettySize=auto;html=1;entryX=1;entryY=0.5;entryDx=0;entryDy=0;entryPerimeter=0;fontSize=10;" parent="1" source="1oDAUT04zzke2lDfdvhH-54" target="1oDAUT04zzke2lDfdvhH-51" edge="1">
                    <mxGeometry relative="1" as="geometry"/>
                </mxCell>
                <mxCell id="1oDAUT04zzke2lDfdvhH-54" value="EL[indexL] = E[Start + indexL]" style="rounded=1;whiteSpace=wrap;html=1;absoluteArcSize=1;arcSize=14;strokeWidth=2;fontSize=10;" parent="1" vertex="1">
                    <mxGeometry x="-220" y="490" width="140" height="60" as="geometry"/>
                </mxCell>
                <mxCell id="1oDAUT04zzke2lDfdvhH-66" value="Yes" style="edgeStyle=orthogonalEdgeStyle;rounded=1;orthogonalLoop=1;jettySize=auto;html=1;entryX=0;entryY=0.5;entryDx=0;entryDy=0;fontSize=10;exitX=0.5;exitY=1;exitDx=0;exitDy=0;exitPerimeter=0;" parent="1" source="1oDAUT04zzke2lDfdvhH-67" target="1oDAUT04zzke2lDfdvhH-69" edge="1">
                    <mxGeometry relative="1" as="geometry"/>
                </mxCell>
                <mxCell id="1oDAUT04zzke2lDfdvhH-78" value="No" style="edgeStyle=orthogonalEdgeStyle;rounded=1;orthogonalLoop=1;jettySize=auto;html=1;fontSize=10;entryX=0.5;entryY=0;entryDx=0;entryDy=0;" parent="1" source="1oDAUT04zzke2lDfdvhH-67" target="1oDAUT04zzke2lDfdvhH-93" edge="1">
                    <mxGeometry relative="1" as="geometry">
                        <mxPoint x="-700" y="450" as="targetPoint"/>
                    </mxGeometry>
                </mxCell>
                <mxCell id="1oDAUT04zzke2lDfdvhH-67" value="indexR &amp;lt; nR" style="strokeWidth=2;html=1;shape=mxgraph.flowchart.decision;whiteSpace=wrap;fontSize=10;rounded=1;" parent="1" vertex="1">
                    <mxGeometry x="-500.00000000000006" y="370" width="100" height="100" as="geometry"/>
                </mxCell>
                <mxCell id="1oDAUT04zzke2lDfdvhH-68" style="edgeStyle=orthogonalEdgeStyle;rounded=1;orthogonalLoop=1;jettySize=auto;html=1;entryX=1;entryY=0.5;entryDx=0;entryDy=0;entryPerimeter=0;fontSize=10;" parent="1" source="1oDAUT04zzke2lDfdvhH-69" target="1oDAUT04zzke2lDfdvhH-67" edge="1">
                    <mxGeometry relative="1" as="geometry"/>
                </mxCell>
                <mxCell id="1oDAUT04zzke2lDfdvhH-69" value="&lt;span&gt;ER[indexR] = E[Start + indexR]&lt;/span&gt;" style="rounded=1;whiteSpace=wrap;html=1;absoluteArcSize=1;arcSize=14;strokeWidth=2;fontSize=10;" parent="1" vertex="1">
                    <mxGeometry x="-430" y="490" width="140" height="60" as="geometry"/>
                </mxCell>
                <mxCell id="1oDAUT04zzke2lDfdvhH-86" value="Yes" style="edgeStyle=orthogonalEdgeStyle;rounded=1;orthogonalLoop=1;jettySize=auto;html=1;fontSize=10;" parent="1" source="1oDAUT04zzke2lDfdvhH-77" target="1oDAUT04zzke2lDfdvhH-79" edge="1">
                    <mxGeometry relative="1" as="geometry"/>
                </mxCell>
                <mxCell id="1oDAUT04zzke2lDfdvhH-88" value="No" style="edgeStyle=orthogonalEdgeStyle;rounded=1;orthogonalLoop=1;jettySize=auto;html=1;entryX=0.5;entryY=0;entryDx=0;entryDy=0;entryPerimeter=0;fontSize=10;" parent="1" source="1oDAUT04zzke2lDfdvhH-77" target="1oDAUT04zzke2lDfdvhH-87" edge="1">
                    <mxGeometry relative="1" as="geometry"/>
                </mxCell>
                <mxCell id="1oDAUT04zzke2lDfdvhH-77" value="indexL &amp;lt; nL&lt;br&gt;OR&lt;br&gt;indexR &amp;lt; nR" style="strokeWidth=2;html=1;shape=mxgraph.flowchart.decision;whiteSpace=wrap;fontSize=10;rounded=1;" parent="1" vertex="1">
                    <mxGeometry x="-610.04" y="610" width="100" height="100" as="geometry"/>
                </mxCell>
                <mxCell id="1oDAUT04zzke2lDfdvhH-83" value="Yes" style="edgeStyle=orthogonalEdgeStyle;rounded=1;orthogonalLoop=1;jettySize=auto;html=1;entryX=1;entryY=0.5;entryDx=0;entryDy=0;fontSize=10;" parent="1" source="1oDAUT04zzke2lDfdvhH-79" target="1oDAUT04zzke2lDfdvhH-81" edge="1">
                    <mxGeometry relative="1" as="geometry">
                        <Array as="points">
                            <mxPoint x="-560.04" y="920"/>
                        </Array>
                    </mxGeometry>
                </mxCell>
                <mxCell id="1oDAUT04zzke2lDfdvhH-92" value="No" style="edgeStyle=orthogonalEdgeStyle;rounded=1;orthogonalLoop=1;jettySize=auto;html=1;entryX=1;entryY=0.5;entryDx=0;entryDy=0;fontSize=10;" parent="1" source="1oDAUT04zzke2lDfdvhH-79" target="1oDAUT04zzke2lDfdvhH-80" edge="1">
                    <mxGeometry relative="1" as="geometry"/>
                </mxCell>
                <mxCell id="1oDAUT04zzke2lDfdvhH-79" value="strcmp(EL[indexL], ER[indexR]) &amp;gt; 0" style="strokeWidth=2;html=1;shape=mxgraph.flowchart.decision;whiteSpace=wrap;fontSize=10;rounded=1;" parent="1" vertex="1">
                    <mxGeometry x="-650.0799999999999" y="750" width="180.08" height="120" as="geometry"/>
                </mxCell>
                <mxCell id="1oDAUT04zzke2lDfdvhH-96" style="edgeStyle=orthogonalEdgeStyle;rounded=1;orthogonalLoop=1;jettySize=auto;html=1;entryX=0;entryY=0.5;entryDx=0;entryDy=0;fontSize=10;entryPerimeter=0;" parent="1" source="1oDAUT04zzke2lDfdvhH-80" target="1oDAUT04zzke2lDfdvhH-77" edge="1">
                    <mxGeometry relative="1" as="geometry">
                        <mxPoint x="-850" y="660" as="targetPoint"/>
                        <Array as="points">
                            <mxPoint x="-810" y="800"/>
                            <mxPoint x="-810" y="660"/>
                        </Array>
                    </mxGeometry>
                </mxCell>
                <mxCell id="1oDAUT04zzke2lDfdvhH-80" value="&lt;span&gt;E[i] = EL[indexL]&lt;/span&gt;&lt;br&gt;&lt;span&gt;indexL = indexL + 1&lt;br&gt;i = i + 1&lt;br&gt;&lt;/span&gt;" style="rounded=1;whiteSpace=wrap;html=1;absoluteArcSize=1;arcSize=14;strokeWidth=2;fontSize=10;" parent="1" vertex="1">
                    <mxGeometry x="-790" y="760" width="100" height="100" as="geometry"/>
                </mxCell>
                <mxCell id="1oDAUT04zzke2lDfdvhH-98" style="edgeStyle=orthogonalEdgeStyle;rounded=1;orthogonalLoop=1;jettySize=auto;html=1;entryX=0;entryY=0.5;entryDx=0;entryDy=0;fontSize=10;entryPerimeter=0;" parent="1" source="1oDAUT04zzke2lDfdvhH-81" target="1oDAUT04zzke2lDfdvhH-77" edge="1">
                    <mxGeometry relative="1" as="geometry">
                        <mxPoint x="-850" y="660" as="targetPoint"/>
                        <Array as="points">
                            <mxPoint x="-810" y="920"/>
                            <mxPoint x="-810" y="660"/>
                        </Array>
                    </mxGeometry>
                </mxCell>
                <mxCell id="1oDAUT04zzke2lDfdvhH-81" value="E[i] = ER[indexR]&lt;br&gt;indexR = indexR + 1&lt;br&gt;i = i + 1" style="rounded=1;whiteSpace=wrap;html=1;absoluteArcSize=1;arcSize=14;strokeWidth=2;fontSize=10;" parent="1" vertex="1">
                    <mxGeometry x="-790" y="880" width="100" height="100" as="geometry"/>
                </mxCell>
                <mxCell id="1oDAUT04zzke2lDfdvhH-103" value="Yes" style="edgeStyle=orthogonalEdgeStyle;rounded=1;orthogonalLoop=1;jettySize=auto;html=1;entryX=1;entryY=0.5;entryDx=0;entryDy=0;fontSize=10;" parent="1" source="1oDAUT04zzke2lDfdvhH-87" target="1oDAUT04zzke2lDfdvhH-101" edge="1">
                    <mxGeometry relative="1" as="geometry"/>
                </mxCell>
                <mxCell id="1oDAUT04zzke2lDfdvhH-107" value="No" style="edgeStyle=orthogonalEdgeStyle;rounded=1;orthogonalLoop=1;jettySize=auto;html=1;entryX=0.5;entryY=0;entryDx=0;entryDy=0;entryPerimeter=0;fontSize=10;" parent="1" source="1oDAUT04zzke2lDfdvhH-87" target="1oDAUT04zzke2lDfdvhH-100" edge="1">
                    <mxGeometry relative="1" as="geometry"/>
                </mxCell>
                <mxCell id="1oDAUT04zzke2lDfdvhH-87" value="indexL &amp;lt; nL" style="strokeWidth=2;html=1;shape=mxgraph.flowchart.decision;whiteSpace=wrap;fontSize=10;rounded=1;" parent="1" vertex="1">
                    <mxGeometry x="-390" y="710" width="100" height="100" as="geometry"/>
                </mxCell>
                <mxCell id="1oDAUT04zzke2lDfdvhH-94" style="edgeStyle=orthogonalEdgeStyle;rounded=1;orthogonalLoop=1;jettySize=auto;html=1;entryX=0.5;entryY=0;entryDx=0;entryDy=0;entryPerimeter=0;fontSize=10;" parent="1" source="1oDAUT04zzke2lDfdvhH-93" target="1oDAUT04zzke2lDfdvhH-77" edge="1">
                    <mxGeometry relative="1" as="geometry"/>
                </mxCell>
                <mxCell id="1oDAUT04zzke2lDfdvhH-93" value="i = start&lt;br&gt;indexL = 0&lt;br&gt;indexR = 0" style="rounded=1;whiteSpace=wrap;html=1;absoluteArcSize=1;arcSize=14;strokeWidth=2;fontSize=10;" parent="1" vertex="1">
                    <mxGeometry x="-610.04" y="470" width="100" height="100" as="geometry"/>
                </mxCell>
                <mxCell id="1oDAUT04zzke2lDfdvhH-104" value="Yes" style="edgeStyle=orthogonalEdgeStyle;rounded=1;orthogonalLoop=1;jettySize=auto;html=1;entryX=1;entryY=0.5;entryDx=0;entryDy=0;fontSize=10;" parent="1" source="1oDAUT04zzke2lDfdvhH-100" target="1oDAUT04zzke2lDfdvhH-102" edge="1">
                    <mxGeometry relative="1" as="geometry"/>
                </mxCell>
                <mxCell id="1oDAUT04zzke2lDfdvhH-109" value="No" style="edgeStyle=orthogonalEdgeStyle;rounded=1;orthogonalLoop=1;jettySize=auto;html=1;entryX=0;entryY=0.5;entryDx=0;entryDy=0;entryPerimeter=0;fontSize=10;" parent="1" source="1oDAUT04zzke2lDfdvhH-100" target="1oDAUT04zzke2lDfdvhH-108" edge="1">
                    <mxGeometry relative="1" as="geometry"/>
                </mxCell>
                <mxCell id="1oDAUT04zzke2lDfdvhH-100" value="indexR &amp;lt; nR" style="strokeWidth=2;html=1;shape=mxgraph.flowchart.decision;whiteSpace=wrap;fontSize=10;rounded=1;" parent="1" vertex="1">
                    <mxGeometry x="-210" y="710" width="100" height="100" as="geometry"/>
                </mxCell>
                <mxCell id="1oDAUT04zzke2lDfdvhH-106" style="edgeStyle=orthogonalEdgeStyle;rounded=1;orthogonalLoop=1;jettySize=auto;html=1;entryX=0;entryY=0.5;entryDx=0;entryDy=0;entryPerimeter=0;fontSize=10;" parent="1" source="1oDAUT04zzke2lDfdvhH-101" target="1oDAUT04zzke2lDfdvhH-87" edge="1">
                    <mxGeometry relative="1" as="geometry"/>
                </mxCell>
                <mxCell id="1oDAUT04zzke2lDfdvhH-101" value="&lt;span&gt;E[i] = EL[indexL]&lt;/span&gt;&lt;br&gt;&lt;span&gt;indexL = indexL + 1&lt;br&gt;i = i + 1&lt;br&gt;&lt;/span&gt;" style="rounded=1;whiteSpace=wrap;html=1;absoluteArcSize=1;arcSize=14;strokeWidth=2;fontSize=10;" parent="1" vertex="1">
                    <mxGeometry x="-460" y="830" width="100" height="60" as="geometry"/>
                </mxCell>
                <mxCell id="1oDAUT04zzke2lDfdvhH-105" value="No" style="edgeStyle=orthogonalEdgeStyle;rounded=1;orthogonalLoop=1;jettySize=auto;html=1;entryX=0;entryY=0.5;entryDx=0;entryDy=0;entryPerimeter=0;fontSize=10;" parent="1" source="1oDAUT04zzke2lDfdvhH-102" target="1oDAUT04zzke2lDfdvhH-100" edge="1">
                    <mxGeometry relative="1" as="geometry"/>
                </mxCell>
                <mxCell id="1oDAUT04zzke2lDfdvhH-102" value="E[i] = ER[indexR]&lt;br&gt;indexR = indexR + 1&lt;br&gt;i = i + 1" style="rounded=1;whiteSpace=wrap;html=1;absoluteArcSize=1;arcSize=14;strokeWidth=2;fontSize=10;" parent="1" vertex="1">
                    <mxGeometry x="-280" y="830" width="100" height="60" as="geometry"/>
                </mxCell>
                <mxCell id="1oDAUT04zzke2lDfdvhH-108" value="END" style="strokeWidth=2;html=1;shape=mxgraph.flowchart.terminator;whiteSpace=wrap;fontSize=10;rounded=1;" parent="1" vertex="1">
                    <mxGeometry x="-70" y="730" width="100" height="60" as="geometry"/>
                </mxCell>
            </root>
        </mxGraphModel>
    </diagram>
</mxfile>